# xmcd
#
# Track frame offsets:
#	150
#	21495
#	42590
#	62667
#	87832
#	107282
#	130422
#	154987
#	177855
#	196835
#	218787
#	240302
#
# Disc length: 3435 seconds
#
# Revision: 8
# Processed by: cddbd v1.5.2PL0 Copyright (c) Steve Scherf et al.
# Submitted via: EasyCDDAExtractor 15.3.0.1
#
DISCID=9e0d690c
DTITLE=Eros Ramazzotti - Donde Hay Musica
DYEAR=1996
DGENRE=Latin
TTITLE0=Donde Hay Musica
TTITLE1=Estrella Gemela
TTITLE2=La Cosa Mas Bella
TTITLE3=La Aurora
TTITLE4=Carta Al Futuro
TTITLE5=Yo Amare
TTITLE6=Este Inmenso Show
TTITLE7=Casi Amor
TTITLE8=Yo Sin Ti
TTITLE9=Pero Ella
TTITLE10=Huracan Meri
TTITLE11=Buena Vida
EXTD=
EXTT0=
EXTT1=
EXTT2=
EXTT3=
EXTT4=
EXTT5=
EXTT6=
EXTT7=
EXTT8=
EXTT9=
EXTT10=
EXTT11=
PLAYORDER=
